<svg version="1.1" id="Layer_1" xmlns="http://www.w3.org/2000/svg" xmlns:xlink="http://www.w3.org/1999/xlink" x="0px" y="0px"
	 width="100%" viewBox="0 0 352 352" enable-background="new 0 0 352 352" xml:space="preserve">
<path fill="#000000" opacity="1.000000" stroke="none" 
	d="
M187.021118,37.673439 
	C209.956650,37.654003 231.320023,41.765823 249.807938,55.342556 
	C272.268890,71.836937 284.009247,94.089127 283.190948,122.150513 
	C282.629608,141.401260 274.578094,157.741470 261.837189,172.049026 
	C252.384430,182.664108 241.997437,192.322067 231.156998,201.369034 
	C217.078171,213.118607 212.437424,228.273163 212.347870,245.653336 
	C212.330704,248.985840 212.187210,252.326324 212.366135,255.648895 
	C212.556839,259.189941 210.954391,260.282623 207.602905,260.250214 
	C194.440308,260.122955 181.276062,260.161957 168.112442,260.144043 
	C165.805969,260.140900 163.869873,259.952728 163.639725,256.839264 
	C162.543045,242.003494 162.765396,227.276260 166.624344,212.782593 
	C170.175095,199.446594 177.002090,187.952744 186.380203,177.943451 
	C194.590271,169.180847 203.650894,161.312302 212.575287,153.297424 
	C219.904388,146.715286 227.292877,139.979630 230.409164,130.250305 
	C235.259735,115.106461 227.420517,97.393120 212.355423,88.493591 
	C186.617615,73.289291 156.822433,85.629730 148.470886,115.105110 
	C146.755341,121.159843 145.687866,127.411224 144.572235,133.617004 
	C144.071289,136.403656 142.938889,137.040344 140.174728,136.675781 
	C125.843910,134.785736 111.494942,133.018173 97.127167,131.436188 
	C94.229713,131.117142 93.411957,129.974869 93.635918,127.333611 
	C97.143295,85.968559 118.175850,47.856041 167.692917,39.564110 
	C173.938110,38.518318 180.175659,37.570412 187.021118,37.673439 
M197.109894,180.610229 
	C179.316727,197.050949 172.361465,217.868439 172.268402,241.559097 
	C172.253906,245.252197 173.484390,246.931534 177.111984,246.530884 
	C184.218567,245.746002 191.299500,244.756378 198.481598,244.850952 
	C202.150360,244.899261 203.865112,242.992477 203.688171,239.209045 
	C203.381439,232.649872 204.788834,226.322067 206.652023,220.080551 
	C210.417328,207.467087 219.832504,199.170364 229.081345,190.756042 
	C240.159973,180.677017 251.299759,170.692307 260.476929,158.716614 
	C279.309143,134.141602 279.236298,96.343506 254.006531,71.806351 
	C252.899460,70.729668 244.444946,70.032196 244.043091,71.178490 
	C242.385620,75.906357 237.304871,78.958801 237.173599,84.219116 
	C236.997208,91.287361 236.300415,98.588554 238.513138,105.367096 
	C244.453323,123.564583 240.558044,139.119843 226.947723,152.311523 
	C217.274460,161.687271 207.409927,170.865692 197.109894,180.610229 
M147.272293,94.860512 
	C152.962585,88.382355 157.158783,80.706932 163.524948,74.757996 
	C167.333557,71.199005 167.775513,61.277328 164.466888,57.609264 
	C163.358124,56.380047 150.662155,54.267048 148.787231,55.236023 
	C140.796387,59.365829 133.027420,63.747936 126.681961,70.397171 
	C114.771553,82.877792 108.331902,97.886360 105.089424,114.575974 
	C104.604431,117.072334 104.307472,118.969070 106.393982,120.849312 
	C108.459709,122.710838 110.496765,123.337486 113.210716,122.411835 
	C118.070305,120.754372 122.768471,120.346107 126.578804,124.917686 
	C127.488113,126.008644 129.416595,126.093048 130.316330,125.417061 
	C133.228363,123.229187 136.969086,122.049522 137.983505,117.590126 
	C139.757187,109.792923 142.585846,102.309883 147.272293,94.860512 
z"/>
<path fill="#000000" opacity="1.000000" stroke="none" 
	d="
M161.477554,288.524872 
	C161.521667,282.574493 161.521667,277.090607 161.521667,271.941528 
	C162.985291,270.257416 164.578583,270.644257 166.019012,270.642456 
	C180.997208,270.623627 195.977036,270.769653 210.952713,270.579773 
	C215.122559,270.526886 216.417145,271.965881 216.367752,276.040558 
	C216.190262,290.683838 216.188980,305.331970 216.372498,319.975128 
	C216.424393,324.116638 214.968613,325.452240 210.880890,325.404388 
	C195.904724,325.229065 180.924698,325.279877 165.947266,325.394318 
	C162.631882,325.419647 161.324844,324.659851 161.425797,320.907410 
	C161.711777,310.276276 160.531738,299.634094 161.477554,288.524872 
M170.390518,304.394348 
	C170.390518,305.889679 170.372833,307.385254 170.393646,308.880310 
	C170.472809,314.569458 171.461136,315.663788 177.030594,315.717285 
	C183.509460,315.779510 189.992432,315.794189 196.468765,315.633209 
	C203.000229,315.470886 206.704163,311.620422 206.735855,305.226776 
	C206.769623,298.414856 206.657410,291.600372 206.812683,284.791656 
	C206.888168,281.481049 205.714432,280.122162 202.288986,279.805786 
	C193.326508,278.977966 184.375977,280.545502 175.410477,279.587677 
	C171.961533,279.219177 170.406647,281.598419 170.412918,284.981781 
	C170.424316,291.129059 170.400284,297.276428 170.390518,304.394348 
z"/>
</svg>