<svg width="66" height="66" viewBox="0 0 66 66" fill="none" xmlns="http://www.w3.org/2000/svg">
<rect x="1.5" y="1.5" width="63" height="63" rx="31" fill="white"/>
<path d="M34.25 29.1V25.4C34.25 25.15 34.3373 24.9373 34.512 24.762C34.6873 24.5873 34.9 24.5 35.15 24.5H40.6C40.85 24.5 41.0627 24.5873 41.238 24.762C41.4127 24.9373 41.5 25.15 41.5 25.4V29.1C41.5 29.35 41.4127 29.5627 41.238 29.738C41.0627 29.9127 40.85 30 40.6 30H35.15C34.9 30 34.6873 29.9127 34.512 29.738C34.3373 29.5627 34.25 29.35 34.25 29.1ZM24.5 32.6V25.4C24.5 25.15 24.5877 24.9373 24.763 24.762C24.9377 24.5873 25.15 24.5 25.4 24.5H30.85C31.1 24.5 31.3127 24.5873 31.488 24.762C31.6627 24.9373 31.75 25.15 31.75 25.4V32.6C31.75 32.85 31.6627 33.0627 31.488 33.238C31.3127 33.4127 31.1 33.5 30.85 33.5H25.4C25.15 33.5 24.9377 33.4127 24.763 33.238C24.5877 33.0627 24.5 32.85 24.5 32.6ZM34.25 40.6V33.4C34.25 33.15 34.3373 32.9373 34.512 32.762C34.6873 32.5873 34.9 32.5 35.15 32.5H40.6C40.85 32.5 41.0627 32.5873 41.238 32.762C41.4127 32.9373 41.5 33.15 41.5 33.4V40.6C41.5 40.85 41.4127 41.0627 41.238 41.238C41.0627 41.4127 40.85 41.5 40.6 41.5H35.15C34.9 41.5 34.6873 41.4127 34.512 41.238C34.3373 41.0627 34.25 40.85 34.25 40.6ZM24.5 40.6V36.9C24.5 36.65 24.5877 36.4373 24.763 36.262C24.9377 36.0873 25.15 36 25.4 36H30.85C31.1 36 31.3127 36.0873 31.488 36.262C31.6627 36.4373 31.75 36.65 31.75 36.9V40.6C31.75 40.85 31.6627 41.0627 31.488 41.238C31.3127 41.4127 31.1 41.5 30.85 41.5H25.4C25.15 41.5 24.9377 41.4127 24.763 41.238C24.5877 41.0627 24.5 40.85 24.5 40.6Z" fill="#FF671D"/>
<rect x="1.5" y="1.5" width="63" height="63" rx="31" stroke="#E6E6E6" stroke-width="3"/>
</svg>
