<svg width="64" height="64" viewBox="0 0 64 64" fill="none" xmlns="http://www.w3.org/2000/svg">
<rect x="1.5" y="1.5" width="61" height="61" rx="30.5" fill="white"/>
<path d="M32 34.625L29.375 32L32 29.375L34.625 32L32 34.625ZM29.875 27.275L27.8 25.2L32 21L36.2 25.2L34.125 27.275L32 25.15L29.875 27.275ZM25.2 36.2L21 32L25.2 27.8L27.275 29.875L25.15 32L27.275 34.125L25.2 36.2ZM38.8 36.2L36.725 34.125L38.85 32L36.725 29.875L38.8 27.8L43 32L38.8 36.2ZM32 43L27.8 38.8L29.875 36.725L32 38.85L34.125 36.725L36.2 38.8L32 43Z" fill="#2400FF"/>
<rect x="1.5" y="1.5" width="61" height="61" rx="30.5" stroke="#E6E6E6" stroke-width="3"/>
</svg>
