<svg width="66" height="66" viewBox="0 0 66 66" fill="none" xmlns="http://www.w3.org/2000/svg">
<rect x="1.5" y="1.5" width="63" height="63" rx="31" fill="white"/>
<path d="M42.45 29.55L41.25 29L42.45 28.45L43 27.25L43.55 28.45L44.75 29L43.55 29.55L43 30.75L42.45 29.55ZM39.175 24.825L37.375 24L39.175 23.175L40 21.375L40.825 23.175L42.625 24L40.825 24.825L40 26.625L39.175 24.825ZM30 42.575C29.5 42.575 29.0667 42.4 28.7 42.05C28.3333 41.7 28.1333 41.275 28.1 40.775H31.9C31.8667 41.275 31.6667 41.7 31.3 42.05C30.9333 42.4 30.5 42.575 30 42.575ZM27 39.375C26.7833 39.375 26.6043 39.3043 26.463 39.163C26.321 39.021 26.25 38.8417 26.25 38.625C26.25 38.425 26.321 38.25 26.463 38.1C26.6043 37.95 26.7833 37.875 27 37.875H33C33.2167 37.875 33.396 37.95 33.538 38.1C33.6793 38.25 33.75 38.425 33.75 38.625C33.75 38.8417 33.6793 39.021 33.538 39.163C33.396 39.3043 33.2167 39.375 33 39.375H27ZM26.4 36.5C25.35 35.85 24.521 35 23.913 33.95C23.3043 32.9 23 31.75 23 30.5C23 28.55 23.679 26.8957 25.037 25.537C26.3957 24.179 28.05 23.5 30 23.5C31.95 23.5 33.6043 24.179 34.963 25.537C36.321 26.8957 37 28.55 37 30.5C37 31.75 36.696 32.9 36.088 33.95C35.4793 35 34.65 35.85 33.6 36.5H26.4Z" fill="#FFCB14"/>
<rect x="1.5" y="1.5" width="63" height="63" rx="31" stroke="#E6E6E6" stroke-width="3"/>
</svg>
