<svg width="66" height="66" viewBox="0 0 66 66" fill="none" xmlns="http://www.w3.org/2000/svg">
<rect x="1.5" y="1.5" width="63" height="63" rx="31" fill="white"/>
<path d="M33 42.5C31.6833 42.5 30.446 42.25 29.288 41.75C28.1293 41.25 27.125 40.575 26.275 39.725C25.425 38.875 24.75 37.8707 24.25 36.712C23.75 35.554 23.5 34.3167 23.5 33C23.5 31.6833 23.75 30.4457 24.25 29.287C24.75 28.129 25.425 27.125 26.275 26.275C27.125 25.425 28.1293 24.75 29.288 24.25C30.446 23.75 31.6833 23.5 33 23.5C34.3167 23.5 35.5543 23.75 36.713 24.25C37.871 24.75 38.875 25.425 39.725 26.275C40.575 27.125 41.25 28.129 41.75 29.287C42.25 30.4457 42.5 31.6833 42.5 33C42.5 34.3167 42.25 35.554 41.75 36.712C41.25 37.8707 40.575 38.875 39.725 39.725C38.875 40.575 37.871 41.25 36.713 41.75C35.5543 42.25 34.3167 42.5 33 42.5ZM32 40.95V39C31.45 39 30.9793 38.8043 30.588 38.413C30.196 38.021 30 37.55 30 37V36L25.2 31.2C25.15 31.5 25.104 31.8 25.062 32.1C25.0207 32.4 25 32.7 25 33C25 35.0167 25.6627 36.7833 26.988 38.3C28.3127 39.8167 29.9833 40.7 32 40.95ZM38.9 38.4C39.2333 38.0333 39.5333 37.6373 39.8 37.212C40.0667 36.7873 40.2877 36.3457 40.463 35.887C40.6377 35.429 40.771 34.9583 40.863 34.475C40.9543 33.9917 41 33.5 41 33C41 31.3667 40.546 29.8707 39.638 28.512C38.7293 27.154 37.5167 26.175 36 25.575V26C36 26.55 35.8043 27.0207 35.413 27.412C35.021 27.804 34.55 28 34 28H32V30C32 30.2833 31.9043 30.5207 31.713 30.712C31.521 30.904 31.2833 31 31 31H29V33H35C35.2833 33 35.521 33.0957 35.713 33.287C35.9043 33.479 36 33.7167 36 34V37H37C37.4333 37 37.825 37.129 38.175 37.387C38.525 37.6457 38.7667 37.9833 38.9 38.4Z" fill="#BD32FF"/>
<rect x="1.5" y="1.5" width="63" height="63" rx="31" stroke="#E6E6E6" stroke-width="3"/>
</svg>
