<svg width="70" height="20" viewBox="0 0 70 20" fill="none" xmlns="http://www.w3.org/2000/svg">
<path d="M63.4438 19.1162C62.5483 19.0202 61.1238 18.7082 60.6495 18.5042L60.4178 18.4037L60.3862 17.256C60.3685 16.6243 60.3485 15.7802 60.3414 15.3797L60.3284 14.6516L60.4675 14.5852C60.5766 14.5412 60.6923 14.5156 60.8097 14.5094L61.0137 14.4998L61.1871 14.927C61.864 16.5932 62.6584 17.4896 63.695 17.765C64.091 17.869 64.8327 17.87 65.1256 17.765C65.9457 17.4756 66.3959 16.8544 66.3995 16.0063C66.4045 15.0013 65.8518 14.5184 63.7649 13.7034C62.472 13.1983 62.0213 12.9381 61.4841 12.3888C60.9047 11.7959 60.6268 11.1205 60.5746 10.1809C60.5112 9.04475 60.867 8.087 61.6549 7.27096C62.4428 6.45491 63.477 6.00467 64.879 5.87654C66.1135 5.76398 68.0085 6.02728 68.9994 6.44636L69.1808 6.52325L69.2129 7.54632C69.231 8.10911 69.2491 8.86335 69.2541 9.22264L69.2621 9.87589L69.0189 9.96632C68.6346 10.109 68.6094 10.0909 68.3954 9.52413C67.7953 7.93525 67.0989 7.18302 66.013 6.95338C65.3513 6.81369 64.7985 6.96393 64.3965 7.39356C64.0834 7.72873 63.9608 8.0262 63.9312 8.52568C63.899 9.06736 63.996 9.35982 64.3267 9.72165C64.7347 10.1678 65.4025 10.5532 66.7331 11.109C68.3627 11.7899 69.1405 12.3682 69.5631 13.2134C69.8375 13.7622 69.9149 14.2004 69.8878 15.044C69.8671 15.6771 69.8471 15.8073 69.7028 16.2324C69.2331 17.6182 68.1732 18.5308 66.5371 18.9584C65.9844 19.1037 65.9029 19.1092 64.8 19.1227C64.1649 19.1317 63.5543 19.1277 63.4438 19.1162Z" fill="#646464"/>
<path d="M0.0668315 18.8143C0.0251246 18.7962 0.00401994 18.672 0.00401994 18.4404C0.00401994 18.0238 -0.0226122 18.0424 0.782883 17.8931C1.40045 17.7786 1.62154 17.661 1.8944 17.3038C2.42302 16.6103 2.53759 15.2751 2.53859 9.77737C2.53859 4.61428 2.4381 3.52839 1.89339 2.73043C1.65069 2.37869 1.24015 2.18422 0.556762 2.10232L0.0291446 2.03901L0.0145722 1.62697L0 1.21542L0.16532 1.18577C0.256271 1.16969 3.45061 1.16266 7.26353 1.1707L14.1979 1.18477L14.2306 1.38577C14.2487 1.49631 14.2778 2.63044 14.2959 3.90577L14.3286 6.22426L13.9693 6.33431C13.4311 6.49812 13.4341 6.50013 13.1919 5.85946C12.5975 4.28615 11.9156 3.37966 10.9809 2.92189C10.3373 2.60632 10.0398 2.57014 8.22279 2.57014H6.64395L6.61682 2.83395C6.56657 3.32891 6.48517 6.51119 6.48567 8.00963V9.50001L6.95048 9.49751C7.20625 9.49751 7.71025 9.4769 8.07053 9.4558C8.61272 9.42313 8.77402 9.39449 9.00014 9.28947C9.55739 9.0317 9.93627 8.46388 10.1684 7.53979L10.288 7.06293L10.6986 7.04836L11.1086 7.03378V13.0727L10.698 13.0582L10.288 13.0436L10.1714 12.5662C9.95291 11.6693 9.53179 11.0271 9.01119 10.797C8.77101 10.6909 8.17606 10.6301 7.02585 10.5959L6.48567 10.5794V11.711C6.48567 12.9471 6.5535 14.6189 6.64043 15.5264C6.76204 16.7917 7.08514 17.4906 7.66602 17.7434C7.77657 17.7936 8.12732 17.8701 8.44539 17.9178C8.76347 17.9655 9.06295 18.0248 9.1112 18.0499C9.23382 18.1133 9.24086 18.7684 9.11974 18.8147C9.02476 18.8514 0.156778 18.8489 0.066329 18.8122L0.0668315 18.8143Z" fill="#646464"/>
<path d="M24.8384 18.8048C24.7927 18.7756 24.7776 18.6595 24.7881 18.4159L24.8032 18.0686L24.9791 18.0314C25.0756 18.0108 25.2837 17.9696 25.4409 17.9404C25.9273 17.8495 26.2067 17.5852 26.3644 17.0681C26.4926 16.6465 26.549 15.2983 26.5519 12.5914C26.5554 9.28052 26.4866 8.49864 26.15 8.05544C25.9686 7.81525 25.8374 7.74691 25.3962 7.66249C25.1791 7.62078 24.9505 7.57606 24.8882 7.56199C24.7877 7.54089 24.7751 7.50822 24.7751 7.2605C24.7751 7.01276 24.7901 6.97759 24.8882 6.93739C25.0389 6.87558 30.0167 5.88216 30.1754 5.88216H30.3015L30.2774 6.62333C30.2639 7.03086 30.2422 7.6248 30.2297 7.94238L30.2065 8.52024L30.3869 8.19513C30.9643 7.15396 31.6115 6.50776 32.4723 6.11331C32.9451 5.89673 33.2602 5.83191 33.8441 5.83191C34.5365 5.83191 35.229 6.05803 35.229 6.28415C35.229 6.4349 34.0089 9.65993 33.9416 9.68553C33.9089 9.69805 33.6708 9.60717 33.4125 9.48452C32.8732 9.22625 32.3683 9.09962 31.8773 9.10113C31.2663 9.10113 30.584 9.32725 30.3146 9.61613C30.1991 9.73984 30.1985 9.74733 30.1699 11.5935C30.1417 13.422 30.2025 15.6522 30.3056 16.5491C30.393 17.3129 30.5959 17.6892 31.0156 17.8646C31.1558 17.9219 32.0412 18.0425 32.3301 18.0425C32.3522 18.0425 32.3633 18.2178 32.3552 18.4319L32.3407 18.8213L28.6222 18.8334C26.577 18.8399 24.8741 18.8264 24.8384 18.8038V18.8048Z" fill="#646464"/>
<path d="M24.7802 11.4365C24.5174 9.20648 23.5742 7.57439 22.0114 6.65582C20.2773 5.63526 17.6422 5.57597 15.77 6.51614C14.4198 7.1945 13.3143 8.50199 12.8224 10.0025C12.3164 11.5521 12.3164 13.5857 12.8224 15.1675C13.147 16.1806 13.5872 16.9202 14.2661 17.5926C15.0796 18.3966 16.1454 18.9142 17.3639 19.092C17.8001 19.1554 19.1764 19.1568 19.6252 19.092C19.9032 19.0496 20.1786 18.9907 20.4497 18.9156C22.6582 18.276 24.1681 16.5785 24.6837 14.149C24.8083 13.5555 24.8606 12.1174 24.7802 11.4365ZM20.2161 17.1519C19.9824 17.5996 19.5432 18.0111 19.1875 18.1172C17.8141 18.5247 16.8317 17.2167 16.4498 14.4746C16.3268 13.5887 16.3272 11.1752 16.4498 10.1622C16.7187 7.95829 17.3991 6.83874 18.4714 6.83723C18.9542 6.83723 19.2252 6.95481 19.6005 7.3352C20.4999 8.23969 20.9265 9.97128 20.9195 12.6907C20.9155 14.8615 20.701 16.2278 20.2161 17.1519Z" fill="#646464"/>
<path d="M47.2986 10.3803C46.7961 8.08595 45.3655 6.50158 43.4293 6.1011C43.1329 6.0398 42.8656 6.02724 42.2887 6.04733C41.4219 6.07748 40.825 6.20763 40.1782 6.50661C39.9632 6.60711 39.7762 6.68701 39.7617 6.68701C39.7471 6.68701 39.7491 5.3755 39.7662 3.77255C39.7903 1.51385 39.7838 0.858094 39.7371 0.858094C39.5732 0.857089 34.4413 1.83344 34.385 1.87815C34.3433 1.91132 34.3252 2.01986 34.3348 2.18417C34.3513 2.46959 34.3177 2.44698 34.9433 2.58617C35.1317 2.62837 35.3518 2.71028 35.4332 2.76806C35.6417 2.91881 35.8156 3.2384 35.9357 3.7002C36.0307 4.064 36.0433 4.32429 36.0864 6.786C36.1311 9.29846 36.1221 11.8828 36.0532 16.6158L36.0246 18.582L36.3924 18.6654C36.9246 18.7865 38.4481 19.0403 38.9466 19.0905C39.6777 19.1649 41.3822 19.1544 41.9249 19.0729C44.2816 18.7177 46.0579 17.3509 46.886 15.254C47.1307 14.5935 47.2993 13.9071 47.3885 13.2083C47.4774 12.4646 47.4292 10.9788 47.2986 10.3803ZM43.4796 13.747C43.254 15.5023 42.6802 16.9183 41.9174 17.6047C41.6128 17.8785 41.3289 18.0238 40.9626 18.0931C40.6978 18.1433 40.6184 18.1433 40.1395 18.1067C39.9386 18.0911 39.8913 18.0679 39.8501 17.9599C39.7858 17.7911 39.7094 11.9013 39.7406 9.5487L39.7651 7.71209L40.0983 7.6141C40.3549 7.54425 40.62 7.51126 40.8858 7.51612C41.3108 7.51612 41.3662 7.52868 41.7244 7.70556C42.5882 8.13268 43.1816 9.19344 43.456 10.8069C43.5565 11.4034 43.569 13.0325 43.4771 13.747H43.4796Z" fill="#646464"/>
<path d="M59.6016 10.9332C59.3695 8.67498 58.4555 7.12027 56.9017 6.34191C55.5214 5.64998 53.3893 5.70023 51.83 6.46C50.3527 7.18057 49.3357 8.38203 48.7684 10.078C48.4724 10.9614 48.3794 11.6723 48.409 12.8175C48.4282 13.5417 48.4593 13.9155 48.5362 14.2501C49.1186 16.85 50.9015 18.6178 53.3943 19.0675C53.943 19.168 55.1892 19.168 55.744 19.0715C56.5359 18.9328 57.4494 18.5806 58.0253 18.1917C58.7288 17.7168 59.4494 17.0028 59.4494 16.7812C59.4494 16.646 59.2077 16.335 59.1026 16.335C59.0569 16.335 58.8614 16.4355 58.669 16.5616C57.9811 17.0058 57.3238 17.1887 56.4078 17.1887C55.1465 17.1887 54.3476 16.8741 53.5436 16.0631C53.1878 15.7038 53.0411 15.5104 52.8571 15.1541C52.4525 14.3716 52.2337 13.4714 52.2009 12.4537L52.1869 12.0141L55.9053 12.0015L59.6238 11.9884L59.6403 11.7371C59.6438 11.4686 59.6308 11.2002 59.6016 10.9332ZM54.9731 10.8769C54.4922 10.8935 53.6747 10.9141 53.1566 10.9226L52.2145 10.9377V10.7342C52.2263 10.5153 52.25 10.2972 52.2853 10.081C52.5994 8.05742 53.3541 6.84289 54.2988 6.84189C55.1681 6.84189 55.7058 8.03731 55.8148 10.2272L55.8465 10.8483L54.9731 10.8769Z" fill="#646464"/>
</svg>
