<svg width="81" height="20" viewBox="0 0 81 20" fill="none" xmlns="http://www.w3.org/2000/svg">
<g clip-path="url(#clip0_8_657)">
<path d="M11.09 5.04306V14.9129C11.09 15.4626 11.1984 16.007 11.4087 16.5148C11.619 17.0226 11.9274 17.4841 12.3161 17.8728C12.7047 18.2615 13.1663 18.5698 13.6741 18.7802C14.1819 18.9906 14.7262 19.0988 15.276 19.0988C15.8256 19.0988 16.3699 18.9906 16.8778 18.7802C17.3857 18.5698 17.8471 18.2615 18.2358 17.8728C18.6245 17.4841 18.9328 17.0226 19.1432 16.5148C19.3536 16.007 19.4618 15.4626 19.4618 14.9129V5.04306C19.4618 3.9329 19.0208 2.8682 18.2358 2.0832C17.4508 1.29819 16.3861 0.857178 15.276 0.857178C14.1658 0.857178 13.1011 1.29819 12.3161 2.0832C11.5311 2.8682 11.09 3.9329 11.09 5.04306ZM14.0863 14.9129V5.04306C14.0839 4.89345 14.1114 4.74488 14.167 4.60598C14.2226 4.46709 14.3054 4.34066 14.4103 4.23403C14.5153 4.12742 14.6405 4.04276 14.7785 3.98496C14.9165 3.92718 15.0646 3.89743 15.2143 3.89745H15.32C15.4659 3.89275 15.6111 3.91683 15.7476 3.96833C15.8842 4.01983 16.0092 4.09772 16.1156 4.19757C16.222 4.29742 16.3076 4.41726 16.3677 4.55024C16.4278 4.68321 16.4611 4.82672 16.4656 4.97256V14.9129C16.4611 15.2154 16.3389 15.5041 16.1251 15.718C15.9112 15.9318 15.6224 16.054 15.32 16.0585C15.1638 16.0645 15.0079 16.0394 14.8613 15.985C14.7147 15.9306 14.5802 15.8479 14.4656 15.7415C14.3511 15.6351 14.2586 15.5071 14.1935 15.365C14.1284 15.2228 14.092 15.0692 14.0863 14.9129ZM43.6077 1.07749H35.1479V4.0737H37.8797V18.7904H40.8759V4.0737H43.6077V1.07749ZM52.4202 1.07749V14.9129C52.4202 15.2168 52.2995 15.5081 52.0846 15.723C51.8698 15.9379 51.5784 16.0585 51.2746 16.0585C50.9707 16.0585 50.6793 15.9379 50.4644 15.723C50.2497 15.5081 50.1289 15.2168 50.1289 14.9129V1.07749H47.0445V14.9129C47.0445 16.0348 47.4903 17.1107 48.2835 17.9039C49.0768 18.6973 50.1526 19.1429 51.2746 19.1429C52.3964 19.1429 53.4723 18.6973 54.2656 17.9039C55.0588 17.1107 55.5045 16.0348 55.5045 14.9129V1.07749H52.4202ZM79.8267 4.0737V1.07749H72.4243V18.7904H79.8267V15.7941H75.4205V11.2117H78.2404V8.21552H75.4205V4.0737H79.8267ZM32.3279 18.7904H29.1555L26.9523 10.4186C27.502 10.3099 27.9965 10.0126 28.3504 9.57827C28.7043 9.14388 28.8956 8.59958 28.891 8.03927V5.30743C28.8946 5.14888 28.8668 4.99118 28.8094 4.84336C28.7519 4.69555 28.6659 4.56049 28.5562 4.44592C28.4466 4.33135 28.3154 4.2395 28.1702 4.17564C28.0251 4.11178 27.8688 4.07713 27.7102 4.0737H26.5117V18.7904H23.5155V1.07749H27.6573C28.7513 1.06991 29.8051 1.4891 30.5949 2.24601C31.3847 3.00292 31.8483 4.03793 31.8872 5.13119V7.95115C31.9268 8.68289 31.7963 9.41385 31.5057 10.0866C31.2152 10.7593 30.7727 11.3556 30.2129 11.8286L32.3279 18.7904ZM65.7268 1.07749V10.7711L62.6425 1.07749H59.5582V18.7904H62.6425V10.1543L65.4624 18.7904H68.8112V1.07749H65.7268ZM0.955811 1.34186V19.0547H4.12827V11.4761H7.03636V8.47989H4.12827V4.33807H8.71071V1.34186H0.955811Z" fill="#646464"/>
</g>
<defs>
<clipPath id="clip0_8_657">
<rect width="79.5428" height="19.2" fill="white" transform="translate(0.548584 0.400024)"/>
</clipPath>
</defs>
</svg>
