<svg width="91" height="30" viewBox="0 0 91 30" fill="none" xmlns="http://www.w3.org/2000/svg">
<g clip-path="url(#clip0_8_666)">
<path d="M4.03671 10.2252C4.03671 11.3137 4.33116 11.3941 5.58034 11.4387V11.8135H0.735287V11.4476C1.73463 11.4476 2.02909 11.2781 2.02909 10.2342V3.20301C2.02909 2.11443 1.73463 2.02521 0.770978 1.98951V1.6326H9.31005V3.89899H8.89961C8.56055 2.76579 8.14117 2.39104 6.13355 2.39104H4.58099C4.08132 2.39104 4.00102 2.47134 4.00102 2.9264V6.19213H5.78556C7.40951 6.19213 7.74857 5.89768 7.92703 4.85372H8.30179V8.4942H7.92703C7.71289 7.28071 7.08829 6.94165 5.78556 6.94165H4.00102V10.243L4.03671 10.2252ZM14.164 10.2252C14.164 11.3137 14.4495 11.3941 15.7077 11.4387V11.8135H10.6039V11.4476C11.8173 11.4476 12.1564 11.2781 12.1564 10.2342V3.20301C12.1564 2.11443 11.9066 2.02521 10.6039 1.98951V1.6326H15.7077V2.01628C14.4942 2.01628 14.164 2.17689 14.164 3.22978V10.2252ZM26.2901 3.41715C26.2901 2.40889 26.0402 1.98951 24.8713 1.86459V1.48984H28.5118V1.86459C27.3786 1.98951 27.0841 2.39996 27.0841 3.41715V11.983H26.5667L19.5445 3.86329V9.84154C19.5445 10.8498 19.7943 11.2603 20.9632 11.3941V11.7689H17.3049V11.3941C18.438 11.2692 18.7325 10.8587 18.7325 9.84154V2.97102C18.6001 2.69196 18.4003 2.45034 18.151 2.26804C17.9017 2.08575 17.6109 1.96854 17.3049 1.92706V1.5523H20.1066L26.2543 8.6905V3.41715H26.2901ZM31.7687 8.1016L33.3212 4.04174L34.8648 8.1016H31.7687ZM39.1299 11.7777V11.4476C38.3268 11.4476 38.1752 11.1532 37.7915 10.1895L34.151 1.31138H33.6514L29.886 10.4751C29.8018 10.7469 29.6358 10.9862 29.4106 11.1602C29.1854 11.3343 28.9121 11.4346 28.6278 11.4476V11.8224H31.9203V11.4476C31.2065 11.4476 30.8763 11.2781 30.8763 10.7784C31.0137 10.1379 31.2078 9.51078 31.4563 8.90465H35.1861C35.4552 9.50721 35.6645 10.1349 35.8106 10.7784C35.8106 11.2781 35.4359 11.4476 34.7221 11.4476V11.8224L39.1299 11.7777ZM49.1413 3.41715C49.1413 2.40889 48.8914 1.98951 47.7225 1.86459V1.48984H51.363V1.86459C50.2298 1.98951 49.9353 2.39996 49.9353 3.41715V11.983H49.4L42.3778 3.86329V9.84154C42.3778 10.8498 42.6276 11.2603 43.7965 11.3941V11.7689H40.1382V11.3941C41.2714 11.2692 41.5569 10.8587 41.5569 9.84154V2.97102C41.4309 2.68915 41.234 2.44478 40.9853 2.2618C40.7366 2.07882 40.4448 1.96347 40.1382 1.92706V1.5523H42.9399L49.0877 8.6905L49.1413 3.41715ZM62.1506 9.3954C61.7222 10.2374 61.06 10.9379 60.2433 11.4127C59.4265 11.8876 58.4901 12.1165 57.5465 12.0722C54.2005 12.0722 52.1928 9.89507 52.1928 6.59365C52.1927 5.88303 52.3341 5.1795 52.6087 4.52407C52.8833 3.86866 53.2856 3.27447 53.7922 2.77615C54.2989 2.27783 54.8996 1.88537 55.5596 1.62162C56.2194 1.35789 56.9251 1.22816 57.6357 1.24C58.6024 1.35582 59.5556 1.56499 60.4821 1.86459C60.7676 1.86459 60.8568 1.69506 61.1512 1.24H61.6866L61.8919 4.66634H61.4725C60.8479 3.07809 59.8039 1.90921 57.9926 1.90921C55.5656 1.90921 54.5127 4.58604 54.5127 6.50443C54.5127 9.27048 55.6816 11.1532 58.2782 11.1532C59.0023 11.1132 59.7058 10.8973 60.3277 10.5242C60.9496 10.1511 61.4712 9.63189 61.8473 9.01172L62.1506 9.3954ZM67.0849 10.1984C67.0849 11.287 67.3793 11.3673 68.6375 11.4119V11.7867H63.5337V11.4476C64.7471 11.403 65.0773 11.2781 65.0773 10.2342V3.21193C65.0773 2.12335 64.7829 2.03413 63.5337 1.99844V1.6326H68.6375V2.01628C67.424 2.01628 67.0849 2.17689 67.0849 3.22978V10.1984ZM72.8579 8.11052L74.4105 4.05067L75.9541 8.11052H72.8579ZM80.2192 11.7867V11.4476C79.4162 11.4476 79.2555 11.1532 78.8808 10.1895L75.2403 1.32031H74.7496L70.9752 10.4839C70.8895 10.7542 70.7229 10.9916 70.4979 11.1639C70.2729 11.3362 70.0003 11.4353 69.7171 11.4476V11.8224H73.0274V11.4476C72.3136 11.4476 71.9835 11.2781 71.9835 10.7784C72.1208 10.1379 72.3148 9.51078 72.5635 8.90465H76.2843C76.5564 9.50695 76.7686 10.1346 76.9178 10.7784C76.9178 11.2781 76.543 11.4476 75.8292 11.4476V11.8224L80.2192 11.7867ZM81.1114 11.7867V11.4476C82.0751 11.403 82.3696 11.2781 82.3696 10.2342V3.20301C82.3696 2.11443 82.0751 2.03413 81.1114 1.98951V1.6326H85.8405V2.00736C84.7073 2.00736 84.4218 2.1769 84.4218 3.22085V10.4483C84.4218 11.0818 84.5824 11.287 85.7156 11.287C87.5537 11.287 88.6423 10.9569 89.5167 9.14557H89.9182L89.2044 11.9116H81.049V11.8224L81.1114 11.7867ZM2.91244 28.0618C4.09024 28.0618 4.37577 27.9012 4.37577 26.8483V18.9427H3.11766C1.94879 18.9427 1.44911 19.4513 1.11004 20.8165H0.690674L0.94051 18.1397H9.97924L10.2291 20.8165H9.80974C9.47063 19.3978 9.00668 18.9427 7.80211 18.9427H6.544V26.8483C6.544 27.9369 6.83846 28.0261 8.00733 28.0618V28.4454H3.07305V28.0618H2.91244ZM14.7975 26.8483C14.7975 27.9369 15.092 28.0261 16.3412 28.0618V28.4454H11.2374V28.0618C12.4508 28.0618 12.7899 27.9012 12.7899 26.8483V19.8261C12.7899 18.7376 12.4954 18.6483 11.2374 18.6126V18.2289H16.3412V18.5859C15.1277 18.5859 14.7975 18.7554 14.7975 19.7993V26.8483ZM27.1377 18.1486H30.7068V18.5233C29.7432 18.5233 29.4576 18.6929 29.4576 19.7369V26.8126C29.4576 27.9012 29.7432 27.9815 30.7068 28.0261V28.4009H26.0313V28.0261C27.0395 28.0261 27.3251 27.8565 27.3251 26.8126V19.5852L23.8898 28.5793H23.3545L19.9638 19.5852V26.5271C19.9638 27.5264 20.2137 27.9458 21.3826 28.0708V28.4544H17.7063V28.0708C18.8396 27.9458 19.1251 27.5354 19.1251 26.5271V19.4781C19.1251 18.7732 18.8396 18.5145 17.7063 18.5145V18.1397H21.4272L24.1575 25.2779L27.1377 18.1486ZM32.1166 28.4009V28.0261C33.0803 28.0261 33.3658 27.8565 33.3658 26.8126V19.8261C33.3658 18.7376 33.0803 18.6483 32.1166 18.6126V18.2289H40.6825V20.4953H40.2631C39.933 19.3621 39.5136 18.9873 37.506 18.9873H35.9534C35.4448 18.9873 35.3645 19.0677 35.3645 19.5227V22.7885H37.1491C38.7819 22.7885 39.112 22.494 39.2905 21.4501H39.6653V25.0906H39.2905C39.0853 23.877 38.4518 23.5825 37.1491 23.5825H35.3645V27.1517C35.3645 27.7852 35.5341 27.9904 37.3721 27.9904C39.2102 27.9904 40.2988 27.6602 41.1821 25.849H41.5569L40.843 28.5882H32.0274V28.4009H32.1166ZM43.0024 25.1887H43.3772C43.7965 26.5271 45.1617 27.9904 46.6429 27.9904C46.8766 28.0126 47.1124 27.9841 47.3341 27.9068C47.5559 27.8296 47.7583 27.7054 47.9277 27.5428C48.0971 27.3801 48.2295 27.1829 48.3157 26.9646C48.4019 26.7461 48.44 26.5117 48.4274 26.2772C48.4274 23.8949 43.0738 23.4755 43.0738 20.5488C43.1153 19.8088 43.4448 19.1144 43.9917 18.6141C44.5387 18.1139 45.2596 17.8475 46.0004 17.872C47.544 17.872 48.0884 18.4074 48.7575 18.4074C48.8995 18.4074 49.0358 18.351 49.1362 18.2506C49.2365 18.1501 49.293 18.014 49.293 17.872H49.6677V21.2626H49.293C49.1669 20.5723 48.8157 19.9431 48.2943 19.4734C47.7729 19.0036 47.1106 18.7198 46.4109 18.6662C46.2076 18.6445 46.0021 18.6665 45.808 18.7306C45.6139 18.7948 45.4357 18.8996 45.2854 19.0381C45.1351 19.1766 45.0159 19.3456 44.9362 19.5338C44.8564 19.7221 44.8177 19.9251 44.8226 20.1295C44.8226 22.2263 50.1762 22.2709 50.1762 25.9025C50.1682 26.3033 50.0776 26.698 49.9102 27.0621C49.7428 27.4264 49.5021 27.7521 49.2033 28.0192C48.9044 28.2863 48.5537 28.4889 48.173 28.6144C47.7924 28.7399 47.39 28.7857 46.9909 28.7489C45.2063 28.7489 44.7334 28.1242 44.0195 28.1242C43.7698 28.1242 43.6002 28.2938 43.4842 28.6597H42.9488L43.0024 25.1887Z" fill="#646464"/>
</g>
<defs>
<clipPath id="clip0_8_666">
<rect width="90.5142" height="28.3428" fill="white" transform="translate(0.280029 0.828552)"/>
</clipPath>
</defs>
</svg>
