<svg width="40" height="40" viewBox="0 0 40 40" fill="none" xmlns="http://www.w3.org/2000/svg">
<path d="M25.3766 8H14.623C10.9711 8 8 10.9712 8 14.6231V25.3768C8 29.0288 10.9711 31.9999 14.623 31.9999H25.3766C29.0288 31.9999 31.9999 29.0287 31.9999 25.3768V14.6231C32 10.9712 29.0288 8 25.3766 8ZM29.8706 25.3768C29.8706 27.8547 27.8547 29.8705 25.3768 29.8705H14.623C12.1452 29.8706 10.1294 27.8547 10.1294 25.3768V14.6231C10.1294 12.1453 12.1452 10.1294 14.623 10.1294H25.3766C27.8545 10.1294 29.8705 12.1453 29.8705 14.6231V25.3768H29.8706Z" fill="#8687A0"/>
<path d="M20 13.8164C16.59 13.8164 13.8158 16.5906 13.8158 20.0006C13.8158 23.4104 16.59 26.1844 20 26.1844C23.4099 26.1844 26.1841 23.4104 26.1841 20.0006C26.1841 16.5906 23.4099 13.8164 20 13.8164ZM20 24.0549C17.7642 24.0549 15.9452 22.2361 15.9452 20.0004C15.9452 17.7646 17.7641 15.9456 20 15.9456C22.2358 15.9456 24.0547 17.7646 24.0547 20.0004C24.0547 22.2361 22.2357 24.0549 20 24.0549Z" fill="#8687A0"/>
<path d="M26.4435 12.0107C26.0332 12.0107 25.6302 12.1768 25.3405 12.4678C25.0493 12.7574 24.882 13.1606 24.882 13.5723C24.882 13.9827 25.0495 14.3857 25.3405 14.6767C25.6301 14.9663 26.0332 15.1338 26.4435 15.1338C26.8552 15.1338 27.2569 14.9663 27.5479 14.6767C27.8389 14.3857 28.005 13.9826 28.005 13.5723C28.005 13.1606 27.8389 12.7574 27.5479 12.4678C27.2583 12.1768 26.8552 12.0107 26.4435 12.0107Z" fill="#8687A0"/>
</svg>
