<svg width="32" height="32" viewBox="0 0 32 32" fill="none" xmlns="http://www.w3.org/2000/svg">
<rect width="32" height="32" rx="8" fill="#F5F4F3"/>
<path d="M21.3334 16.0047C21.3334 16.4936 21.7334 16.8936 22.2223 16.8936H24.0001C24.489 16.8936 24.889 16.4936 24.889 16.0047C24.889 15.5158 24.489 15.1158 24.0001 15.1158H22.2223C21.7334 15.1158 21.3334 15.5158 21.3334 16.0047Z" fill="black"/>
<path d="M20.0801 20.2892C19.7868 20.6803 19.8668 21.2225 20.2579 21.5069C20.729 21.8536 21.2268 22.2269 21.6979 22.5825C22.089 22.8758 22.6401 22.7958 22.9245 22.4047C22.9245 22.3958 22.9334 22.3958 22.9334 22.3869C23.2268 21.9958 23.1468 21.4447 22.7556 21.1603C22.2845 20.8047 21.7868 20.4314 21.3245 20.0847C20.9334 19.7914 20.3823 19.8803 20.089 20.2714C20.089 20.2803 20.0801 20.2892 20.0801 20.2892Z" fill="black"/>
<path d="M22.9423 9.61359C22.9423 9.60471 22.9334 9.60471 22.9334 9.59582C22.6401 9.20471 22.089 9.12471 21.7068 9.41804C21.2357 9.77359 20.729 10.1469 20.2668 10.5025C19.8756 10.7958 19.8045 11.3469 20.0979 11.7292C20.0979 11.738 20.1068 11.738 20.1068 11.7469C20.4001 12.138 20.9423 12.218 21.3334 11.9247C21.8045 11.578 22.3023 11.1958 22.7734 10.8403C23.1557 10.5558 23.2268 10.0047 22.9423 9.61359Z" fill="black"/>
<path d="M12.4445 13.338H8.88898C7.91121 13.338 7.11121 14.138 7.11121 15.1158V16.8936C7.11121 17.8714 7.91121 18.6714 8.88898 18.6714H9.77787V21.338C9.77787 21.8269 10.1779 22.2269 10.6668 22.2269C11.1557 22.2269 11.5557 21.8269 11.5557 21.338V18.6714H12.4445L16.889 21.338V10.6714L12.4445 13.338Z" fill="black"/>
<path d="M19.1112 16.0047C19.1112 14.8225 18.5956 13.7558 17.7779 13.0269V18.9736C18.5956 18.2536 19.1112 17.1869 19.1112 16.0047Z" fill="black"/>
</svg>
