<svg width="53" height="30" viewBox="0 0 53 30" fill="none" xmlns="http://www.w3.org/2000/svg">
<g clip-path="url(#clip0_8_664)">
<path d="M8.86778 1.37434V1.92227L9.37543 2.04314C10.1812 2.23652 10.2779 2.71193 10.5922 4.20261L11.3979 8.40874L9.13368 20.6807L6.02339 5.25817C5.66886 3.56604 5.55605 2.30904 6.82917 2.03507L7.41739 1.91421V1.37434H0.0526123V1.92227L0.801982 2.09954C1.55135 2.29293 1.8656 2.64746 2.37324 4.96809L7.36904 28.6175H8.65828L12.0023 10.7536L15.7088 28.6175H16.7321L21.5668 5.70134C22.1147 3.06647 22.3725 2.3171 23.2992 2.07536L24.0486 1.88197V1.37434H18.5854V1.92227L19.3911 2.08342C20.5676 2.31709 20.8496 3.06647 20.2936 6.11229L17.3526 20.6968L14.3712 5.27429C14.0489 3.74331 13.8555 2.32516 15.177 2.05119L16.0392 1.89004V1.34211L8.86778 1.37434ZM43.8706 1.44686V2.00284L44.8536 2.23652C45.7158 2.42991 46.0703 2.74415 46.0703 3.84807V22.9288C46.0703 25.056 46.0703 27.844 43.8706 27.844C42.6136 27.844 41.6306 26.7482 41.7031 25.9988C41.7836 24.7821 43.9109 24.8546 44.0237 22.8885C44.0696 22.6419 44.0634 22.3886 44.0055 22.1446C43.9477 21.9006 43.8393 21.6714 43.6875 21.4718C43.5357 21.2722 43.3439 21.1066 43.1242 20.9856C42.9045 20.8647 42.662 20.791 42.4121 20.7693C41.1955 20.6082 39.6967 21.6315 39.6564 23.6782C39.6564 26.3131 41.3485 28.7143 44.2976 28.7143C47.5611 28.7143 49.6963 26.5064 49.6963 22.2681V3.88835C49.6963 2.78445 49.9703 2.42991 50.7519 2.27681L51.6222 1.98672V1.4388L43.8706 1.44686ZM30.6156 1.29376C27.2716 1.29376 25.3861 4.0898 25.3861 7.73995C25.3861 14.5488 34.1611 17.1837 34.1611 23.3236C34.1611 26.2324 32.9363 27.844 31.1716 27.844C28.5367 27.844 26.6512 24.6612 26.1758 19.5848H25.5876V28.545H26.063C26.4578 27.2558 26.9654 27.1269 27.4006 27.1269C28.15 27.1269 28.9315 28.6982 31.2119 28.6982C34.717 28.6982 36.9973 25.6765 36.9973 21.5026C36.9973 13.316 28.2547 11.3096 28.2547 5.45155C28.2547 4.11397 28.6496 2.14789 30.6156 2.14789C33.4519 2.14789 34.6445 5.87862 35.1441 10.4071H35.7323V1.4388H35.265C35.0635 2.30098 34.709 2.69581 34.2013 2.69581C33.2908 2.69581 32.8315 1.28571 30.6559 1.28571L30.6156 1.29376ZM36.949 9.01308V9.10977V9.0292V9.01308Z" fill="#646464"/>
</g>
<defs>
<clipPath id="clip0_8_664">
<rect width="52.1142" height="28.3428" fill="white" transform="translate(0.0170898 0.828552)"/>
</clipPath>
</defs>
</svg>
