<?xml version="1.0" standalone="no"?>
<!DOCTYPE svg PUBLIC "-//W3C//DTD SVG 20010904//EN"
 "http://www.w3.org/TR/2001/REC-SVG-20010904/DTD/svg10.dtd">
<svg version="1.0" xmlns="http://www.w3.org/2000/svg"
 width="820.000000pt" height="720.000000pt" viewBox="0 0 820.000000 720.000000"
 preserveAspectRatio="xMidYMid meet">

<g transform="translate(0.000000,720.000000) scale(0.100000,-0.100000)"
fill="#000000" stroke="none">
<path d="M5170 6395 c-19 -24 -80 -151 -80 -167 0 -12 18 -27 55 -44 94 -45
165 -149 165 -244 0 -55 -31 -132 -71 -175 -85 -92 -202 -115 -312 -61 -104
50 -152 135 -145 252 5 82 36 145 89 187 31 24 32 26 34 118 1 52 3 99 5 104
9 35 5 35 -326 35 l-326 0 3 -119 c4 -116 5 -120 37 -165 48 -66 62 -108 62
-178 -1 -150 -112 -262 -260 -261 -77 0 -122 17 -178 68 -59 53 -86 115 -86
195 1 107 51 188 147 236 l49 25 -8 57 c-4 31 -8 75 -9 97 l0 40 -365 0 -365
0 -3 -103 -3 -102 46 -47 c71 -71 89 -114 90 -203 0 -66 -4 -82 -31 -130 -104
-184 -364 -179 -461 8 -26 50 -33 76 -33 121 0 101 64 202 155 243 l28 12 -7
96 c-4 52 -10 98 -14 102 -5 5 -168 7 -363 6 l-354 -3 3 -45 c1 -25 7 -76 13
-115 8 -58 16 -76 44 -105 75 -79 101 -201 63 -291 -43 -98 -140 -162 -248
-162 -148 -1 -262 114 -262 263 0 78 29 140 98 206 l56 54 -8 92 c-3 51 -8 96
-11 101 -8 13 -428 8 -441 -5 -17 -17 -17 -5959 0 -5976 17 -17 4899 -17 4916
0 18 18 17 5961 -1 5976 -9 7 -85 12 -212 12 -194 1 -200 1 -217 -20 -10 -12
-18 -34 -18 -49 0 -17 -11 -36 -30 -53 -48 -42 -41 -70 26 -103 87 -43 142
-130 143 -231 2 -107 -51 -194 -145 -240 -101 -50 -211 -35 -292 39 -137 127
-118 316 43 427 l43 29 -10 48 c-6 26 -11 71 -12 98 l-1 50 -348 5 c-227 3
-352 1 -357 -5z m-3105 -101 l7 -86 -49 -43 c-64 -56 -96 -122 -101 -207 -6
-95 18 -159 82 -223 61 -61 121 -85 215 -85 179 1 311 163 279 342 -12 64 -29
98 -73 147 -29 32 -36 49 -45 112 -5 41 -13 86 -16 102 l-6 27 335 0 334 0 7
-52 c12 -106 11 -112 -42 -146 -186 -121 -170 -402 29 -501 52 -26 74 -31 134
-31 268 0 391 312 200 504 -47 46 -49 57 -46 174 l1 52 334 0 333 0 6 -42 c3
-24 9 -62 13 -84 6 -38 4 -42 -18 -47 -14 -4 -45 -25 -71 -47 -201 -177 -81
-510 184 -510 84 0 147 22 201 69 59 53 91 120 96 203 5 79 -7 121 -56 191
-35 51 -37 55 -40 160 l-4 107 295 0 294 0 -1 -99 c-1 -97 -1 -98 -31 -124
-17 -14 -44 -49 -60 -79 -27 -47 -30 -62 -30 -138 0 -69 5 -93 23 -127 56
-106 132 -155 250 -161 92 -5 149 15 213 75 125 117 125 309 0 426 -26 25 -64
50 -84 58 -35 12 -50 40 -28 53 5 3 21 31 36 61 l27 55 326 -2 327 -3 2 -40
c1 -22 6 -59 11 -83 9 -40 8 -44 -17 -57 -38 -20 -95 -83 -122 -135 -32 -63
-32 -175 0 -242 73 -152 249 -212 399 -137 99 49 152 129 159 239 9 119 -48
221 -156 279 l-55 29 37 33 c26 23 37 41 37 60 0 56 14 60 213 57 l182 -3 3
-2972 2 -2973 -2440 0 -2440 0 0 2968 c0 1633 3 2972 7 2975 3 4 93 7 198 7
l193 0 7 -86z"/>
<path d="M1970 4725 c0 -13 242 -15 2120 -15 1878 0 2120 2 2120 15 0 13 -242
15 -2120 15 -1878 0 -2120 -2 -2120 -15z"/>
<path d="M1970 3955 c0 -13 242 -15 2120 -15 1878 0 2120 2 2120 15 0 13 -242
15 -2120 15 -1878 0 -2120 -2 -2120 -15z"/>
<path d="M1970 3185 c0 -13 242 -15 2120 -15 1878 0 2120 2 2120 15 0 13 -242
15 -2120 15 -1878 0 -2120 -2 -2120 -15z"/>
<path d="M1970 2415 c0 -13 242 -15 2120 -15 1878 0 2120 2 2120 15 0 13 -242
15 -2120 15 -1878 0 -2120 -2 -2120 -15z"/>
<path d="M1970 1645 c0 -13 242 -15 2120 -15 1878 0 2120 2 2120 15 0 13 -242
15 -2120 15 -1878 0 -2120 -2 -2120 -15z"/>
<path d="M1970 878 c0 -10 429 -12 2120 -10 1398 1 2120 5 2120 12 0 7 -720
10 -2120 10 -1689 0 -2120 -3 -2120 -12z"/>
</g>
</svg>
